<svg width="185" height="152" viewBox="0 0 185 152" fill="none" xmlns="http://www.w3.org/2000/svg">
<path d="M97.7143 23.5238C97.7143 11.3928 106.241 0 118.524 0C130.807 0 139.333 11.3928 139.333 23.5238C139.333 35.6549 130.814 47.0476 118.524 47.0476C106.234 47.0476 97.7143 35.6549 97.7143 23.5238ZM0 48.8571C0 36.7261 8.52648 25.3333 20.8095 25.3333C33.0926 25.3333 41.619 36.7261 41.619 48.8571C41.619 60.9882 33.0926 72.381 20.8095 72.381C8.52648 72.381 0 60.9882 0 48.8571ZM92.2857 57.9048C84.373 57.9047 76.5443 59.5264 69.2828 62.6698C62.0213 65.8131 55.481 70.4113 50.0658 76.1807C44.6505 81.95 40.4751 88.768 37.7973 96.2138C35.1196 103.66 33.9963 111.575 34.4968 119.472C35.2061 130.865 41.7059 139.167 50.2396 144.422C58.6648 149.604 69.2686 152 79.315 152H105.256C115.31 152 125.907 149.604 134.332 144.422C142.873 139.167 149.365 130.865 150.075 119.472C150.152 118.261 150.19 117.04 150.19 115.81C150.19 100.452 144.09 85.7239 133.231 74.8647C122.371 64.0054 107.643 57.9048 92.2857 57.9048ZM142.952 48.8571C142.952 36.7261 151.472 25.3333 163.762 25.3333C176.052 25.3333 184.571 36.7261 184.571 48.8571C184.571 60.9882 176.052 72.381 163.762 72.381C151.472 72.381 142.952 60.9882 142.952 48.8571ZM45.2381 23.5238C45.2381 11.3928 53.7646 0 66.0476 0C78.3307 0 86.8571 11.3928 86.8571 23.5238C86.8571 35.6549 78.3307 47.0476 66.0476 47.0476C53.7646 47.0476 45.2381 35.6549 45.2381 23.5238Z" fill="#BEDE61"/>
</svg>
